<svg width="50" height="50" viewBox="0 0 50 50" fill="none" xmlns="http://www.w3.org/2000/svg">
<g id="open-book">
<path id="Vector" d="M5.125 7.10419C4.02043 7.10419 3.125 7.99962 3.125 9.10419V32.9375C3.125 34.0421 4.02043 34.9375 5.125 34.9375H19.0417C19.8259 34.9375 20.6024 35.0923 21.3266 35.3931C22.0509 35.6938 22.7087 36.1345 23.2622 36.69C23.8158 37.2455 24.2542 37.9048 24.5524 38.6301C24.8507 39.3554 25.0027 40.1325 25 40.9167V13.0625C25 12.2801 24.8459 11.5053 24.5465 10.7824C24.247 10.0595 23.8081 9.40262 23.2548 8.84934C22.7016 8.29606 22.0447 7.85717 21.3218 7.55774C20.5989 7.2583 19.8241 7.10419 19.0417 7.10419H5.125Z" stroke="black" stroke-width="4" stroke-miterlimit="10"/>
<path id="Vector_2" d="M44.875 7.10419C45.9795 7.10419 46.875 7.99962 46.875 9.10419V32.9375C46.875 34.0421 45.9795 34.9375 44.875 34.9375H30.9583C30.1741 34.9375 29.3976 35.0923 28.6733 35.3931C27.9491 35.6938 27.2913 36.1345 26.7377 36.69C26.1842 37.2455 25.7457 37.9048 25.4475 38.6301C25.1493 39.3554 24.9972 40.1325 25 40.9167V13.0625C25 11.4823 25.6277 9.96675 26.7451 8.84934C27.8625 7.73194 29.3781 7.10419 30.9583 7.10419H44.875Z" stroke="black" stroke-width="4" stroke-miterlimit="10"/>
<path id="Vector_3" d="M46.875 34.9375V40.8958C46.875 42.0004 45.9796 42.8958 44.875 42.8958H30.9583H19.0417H5.125C4.02043 42.8958 3.125 42.0004 3.125 40.8958V34.9375" stroke="black" stroke-width="4" stroke-miterlimit="10"/>
</g>
</svg>
