<svg width="50" height="50" viewBox="0 0 50 50" fill="none" xmlns="http://www.w3.org/2000/svg">
<g id="mail">
<path id="Vector" d="M44.875 9.08325H5.125C4.02043 9.08325 3.125 9.97868 3.125 11.0833V38.8957C3.125 40.0003 4.02043 40.8957 5.125 40.8957H44.875C45.9796 40.8957 46.875 40.0003 46.875 38.8957V11.0833C46.875 9.97868 45.9796 9.08325 44.875 9.08325Z" stroke="#636363" stroke-width="4" stroke-miterlimit="10"/>
<path id="Vector_2" d="M38.9166 9.08325L26.1638 18.2088C25.4678 18.7068 24.5321 18.7068 23.8361 18.2088L11.0833 9.08325" stroke="#636363" stroke-width="4" stroke-miterlimit="10"/>
<path id="Vector_3" d="M46.875 13.0625L26.1767 28.123C25.4753 28.6334 24.5247 28.6334 23.8233 28.123L3.125 13.0625" stroke="#636363" stroke-width="4" stroke-miterlimit="10"/>
<path id="Vector_4" d="M38.9166 9.08325H11.0833" stroke="#636363" stroke-width="4" stroke-miterlimit="10"/>
<path id="Vector_5" d="M38.9166 18.8542V38.9167C38.9166 40.0213 38.0212 40.9167 36.9166 40.9167H13.0833C11.9787 40.9167 11.0833 40.0213 11.0833 38.9167V18.8542" stroke="#636363" stroke-width="4" stroke-miterlimit="10"/>
</g>
</svg>
