<svg width="50" height="50" viewBox="0 0 50 50" fill="none" xmlns="http://www.w3.org/2000/svg">
<g id="photo-camera">
<path id="Vector" d="M44.875 11.0834H5.125C4.02043 11.0834 3.125 11.9788 3.125 13.0834V42.8959C3.125 44.0004 4.02043 44.8959 5.125 44.8959H44.875C45.9796 44.8959 46.875 44.0004 46.875 42.8959V13.0834C46.875 11.9788 45.9796 11.0834 44.875 11.0834Z" stroke="black" stroke-width="4" stroke-miterlimit="10"/>
<path id="Vector_2" d="M46.875 34.9375H36.9375" stroke="black" stroke-width="4" stroke-miterlimit="10"/>
<path id="Vector_3" d="M21.0208 34.9375H3.125" stroke="black" stroke-width="4" stroke-miterlimit="10"/>
<path id="Vector_4" d="M28.9792 38.9166C34.4675 38.9166 38.9167 34.4675 38.9167 28.9791C38.9167 23.4908 34.4675 19.0416 28.9792 19.0416C23.4909 19.0416 19.0417 23.4908 19.0417 28.9791C19.0417 34.4675 23.4909 38.9166 28.9792 38.9166Z" stroke="black" stroke-width="4" stroke-miterlimit="10"/>
<path id="Vector_5" d="M9.08331 19.0416H15.0625" stroke="black" stroke-width="4" stroke-miterlimit="10"/>
<path id="Vector_6" d="M36.8392 7.97259C37.7268 9.3016 36.7741 11.0833 35.176 11.0833H22.7715C21.1755 11.0833 20.2225 9.30594 21.1056 7.97662L22.4066 6.01829C22.7772 5.46034 23.4026 5.125 24.0725 5.125H33.8682C34.5363 5.125 35.1603 5.45864 35.5314 6.01426L36.8392 7.97259Z" stroke="black" stroke-width="4" stroke-miterlimit="10"/>
<path id="Vector_7" d="M7.10419 7.10413V11.0833" stroke="black" stroke-width="4" stroke-miterlimit="10"/>
</g>
</svg>
