<svg width="55" height="50" viewBox="0 0 55 50" fill="none" xmlns="http://www.w3.org/2000/svg">
<path d="M22.0135 5.0005C17.6348 5.0005 13.4353 6.58191 10.3391 9.39685C7.24284 12.2118 5.50338 16.0297 5.50338 20.0106C5.50338 23.9915 7.24284 27.8094 10.3391 30.6243C13.4353 33.4392 17.6348 35.0207 22.0135 35.0207C26.3923 35.0207 30.5917 33.4392 33.688 30.6243C36.7842 27.8094 38.5237 23.9915 38.5237 20.0106C38.5237 16.0297 36.7842 12.2118 33.688 9.39685C30.5917 6.58191 26.3923 5.0005 22.0135 5.0005ZM1.35978e-07 20.0106C0.000501705 16.8256 0.837114 13.6867 2.44031 10.8548C4.0435 8.02287 6.36697 5.57971 9.21763 3.72835C12.0683 1.877 15.3638 0.670924 18.8302 0.210357C22.2967 -0.25021 25.834 0.0480343 29.1482 1.0803C32.4624 2.11257 35.4577 3.84906 37.8853 6.14544C40.3128 8.44181 42.1025 11.2318 43.1055 14.2834C44.1085 17.3351 44.296 20.5603 43.6522 23.6911C43.0084 26.8218 41.5521 29.7677 39.4042 32.2838L54.2276 45.7604C54.7288 46.2322 55.0062 46.8641 54.9999 47.5201C54.9936 48.176 54.7042 48.8034 54.194 49.2673C53.6839 49.7311 52.9937 49.9942 52.2722 49.9999C51.5507 50.0056 50.8556 49.7535 50.3367 49.2977L35.5133 35.8212C32.2593 38.118 28.3617 39.5386 24.2638 39.9214C20.1658 40.3042 16.0319 39.634 12.3321 37.9868C8.63234 36.3397 5.51519 33.7818 3.33512 30.6039C1.15505 27.4261 -0.000457663 23.7558 1.35978e-07 20.0106Z" fill="#0D0D0D"/>
</svg>
