<svg width="50" height="50" viewBox="0 0 50 50" fill="none" xmlns="http://www.w3.org/2000/svg">
<g id="stand-camera">
<path id="Vector" d="M15.0417 11.0833C17.2393 11.0833 19.0208 9.3018 19.0208 7.10417C19.0208 4.90653 17.2393 3.125 15.0417 3.125C12.844 3.125 11.0625 4.90653 11.0625 7.10417C11.0625 9.3018 12.844 11.0833 15.0417 11.0833Z" stroke="black" stroke-width="4" stroke-miterlimit="10"/>
<path id="Vector_2" d="M28.9792 11.0833C31.1768 11.0833 32.9583 9.3018 32.9583 7.10417C32.9583 4.90653 31.1768 3.125 28.9792 3.125C26.7815 3.125 25 4.90653 25 7.10417C25 9.3018 26.7815 11.0833 28.9792 11.0833Z" stroke="black" stroke-width="4" stroke-miterlimit="10"/>
<path id="Vector_3" d="M28.9792 15.0833H15.0417C13.9371 15.0833 13.0417 15.9787 13.0417 17.0833V25.0416C13.0417 26.1462 13.9371 27.0416 15.0417 27.0416H28.9792C30.0838 27.0416 30.9792 26.1462 30.9792 25.0416V17.0833C30.9792 15.9787 30.0838 15.0833 28.9792 15.0833Z" stroke="black" stroke-width="4" stroke-miterlimit="10"/>
<path id="Vector_4" d="M30.9792 20.1338C30.9792 19.4645 31.314 18.8396 31.8711 18.4688L36.5718 15.3405C36.8239 15.1727 37.1199 15.0833 37.4227 15.0833V15.0833C38.2708 15.0833 38.9584 15.7708 38.9584 16.619V25.5074C38.9584 26.3547 38.2715 27.0416 37.4242 27.0416V27.0416C37.1205 27.0416 36.8236 26.9514 36.5712 26.7826L31.8671 23.6356C31.3123 23.2644 30.9792 22.6409 30.9792 21.9733V20.1338Z" stroke="black" stroke-width="4" stroke-miterlimit="10"/>
<path id="Vector_5" d="M23 48.9584V27.0417" stroke="black" stroke-width="4" stroke-miterlimit="10"/>
<path id="Vector_6" d="M23 27.0417L34.673 46.4832C34.8597 46.7942 34.9583 47.15 34.9583 47.5127V48.9584" stroke="black" stroke-width="4" stroke-miterlimit="10"/>
<path id="Vector_7" d="M23 27.0417L11.327 46.4832C11.1403 46.7942 11.0417 47.15 11.0417 47.5127V48.9584" stroke="black" stroke-width="4" stroke-miterlimit="10"/>
</g>
</svg>
