<svg width="50" height="50" viewBox="0 0 50 50" fill="none" xmlns="http://www.w3.org/2000/svg">
<g id="vk">
<path id="Vector" d="M5.125 15.1042C4.02043 15.1042 3.12625 16.0016 3.29643 17.093C4.37303 23.9974 10.6254 36.9792 25 36.9792H26.9792C28.0837 36.9792 28.9792 36.0838 28.9792 34.9792V32.7076C28.9792 31.7761 29.7343 31.0209 30.6659 31.0209V31.0209C30.9267 31.0209 31.185 31.0798 31.4149 31.203C33.4609 32.2994 35.1775 33.9134 36.3969 35.8772C36.7972 36.5218 37.4797 36.9584 38.2385 36.9584H45.3718C46.202 36.9584 46.875 36.2854 46.875 35.4552V35.4552C46.875 35.1584 46.7888 34.8671 46.6166 34.6253C44.9169 32.2387 42.5591 30.3911 40.3704 28.4146C39.5507 27.6743 39.5584 26.4143 40.2591 25.5605C42.1612 23.2429 43.5343 20.5275 44.2708 17.6042V17.6042C44.5864 16.342 43.6354 15.1042 42.3343 15.1042H37.5963C37.2029 15.1042 36.8536 15.356 36.7292 15.7292V15.7292C35.6198 19.0467 33.7858 22.073 31.3632 24.5896C31.1071 24.8557 30.7512 25.0001 30.3818 25.0001V25.0001C29.6071 25.0001 28.9792 24.3721 28.9792 23.5974V17.1042C28.9792 15.9997 28.0837 15.1042 26.9792 15.1042H20.4561C19.6749 15.1042 19.0417 15.7375 19.0417 16.5187V16.5187C19.0417 16.8813 19.1809 17.23 19.4306 17.4929L20.4708 18.5878C20.8239 18.9595 21.0208 19.4526 21.0208 19.9653V24.1579C21.0208 25.5651 19.6004 26.5146 18.4433 25.7136C17.1486 24.8173 16.0275 23.6793 15.1463 22.353C14.1028 20.7822 13.4331 19.0034 13.1765 17.1526C13.022 16.0379 12.1341 15.1042 11.0087 15.1042H5.125Z" stroke="#636363" stroke-width="4" stroke-miterlimit="10"/>
</g>
</svg>
