<svg width="55" height="50" viewBox="0 0 55 50" fill="none" xmlns="http://www.w3.org/2000/svg">
<path d="M27.5 5C21.6652 5 16.0695 7.10714 11.9437 10.8579C7.81785 14.6086 5.5 19.6957 5.5 25C5.5 30.3043 7.81785 35.3914 11.9437 39.1421C16.0695 42.8929 21.6652 45 27.5 45C33.3348 45 38.9305 42.8929 43.0564 39.1421C47.1822 35.3914 49.5 30.3043 49.5 25C49.5 19.6957 47.1822 14.6086 43.0564 10.8579C38.9305 7.10714 33.3348 5 27.5 5ZM0 25C0 11.1925 12.3118 0 27.5 0C42.6882 0 55 11.1925 55 25C55 38.8075 42.6882 50 27.5 50C12.3118 50 0 38.8075 0 25Z" fill="#0D0D0D"/>
<path d="M27.5 30C26.7707 30 26.0712 29.7366 25.5555 29.2678C25.0397 28.7989 24.75 28.163 24.75 27.5V12.5C24.75 11.837 25.0397 11.2011 25.5555 10.7322C26.0712 10.2634 26.7707 10 27.5 10C28.2293 10 28.9288 10.2634 29.4445 10.7322C29.9603 11.2011 30.25 11.837 30.25 12.5V27.5C30.25 28.163 29.9603 28.7989 29.4445 29.2678C28.9288 29.7366 28.2293 30 27.5 30ZM23.375 36.25C23.375 35.2554 23.8096 34.3016 24.5832 33.5984C25.3568 32.8951 26.406 32.5 27.5 32.5C28.594 32.5 29.6432 32.8951 30.4168 33.5984C31.1904 34.3016 31.625 35.2554 31.625 36.25C31.625 37.2446 31.1904 38.1984 30.4168 38.9017C29.6432 39.6049 28.594 40 27.5 40C26.406 40 25.3568 39.6049 24.5832 38.9017C23.8096 38.1984 23.375 37.2446 23.375 36.25Z" fill="#0D0D0D"/>
</svg>
