<?xml version="1.0" encoding="utf-8"?>
<!-- Generator: Adobe Illustrator 25.4.1, SVG Export Plug-In . SVG Version: 6.00 Build 0)  -->
<svg version="1.1" id="Layer_1" xmlns="http://www.w3.org/2000/svg" xmlns:xlink="http://www.w3.org/1999/xlink" x="0px" y="0px"
	 viewBox="0 0 147.7 147.71" style="enable-background:new 0 0 147.7 147.71;" xml:space="preserve">
<style type="text/css">
	.st0{fill-rule:evenodd;clip-rule:evenodd;fill:#00B2B3;}
	.st1{fill-rule:evenodd;clip-rule:evenodd;fill:#0C767A;}
	.st2{fill-rule:evenodd;clip-rule:evenodd;fill:#009697;}
	.st3{fill-rule:evenodd;clip-rule:evenodd;fill:#97D1CB;}
</style>
<path class="st0" d="M81.59,65.97c6-6.26,11.66-12.86,17.66-19.12C110.15,35.4,81.85,18.57,80.28,0c-1.5,4.18-3.65,8.15-5.65,12.16
	c2.82,5.72,5.27,11.58,5.13,18.46c-0.13,6.57-2.41,12.89-5.15,19.14C77.01,55.16,79.71,60.54,81.59,65.97 M81.73,66.12
	c6.26-6,12.86-11.66,19.12-17.66c11.45-10.9,28.28,17.4,46.85,18.97c-10.2,3.65-19.06,11.17-30.59,10.94
	C105.03,78.13,93.53,70.2,81.73,66.12z"/>
<path class="st1" d="M81.73,81.59c6.26,6,12.86,11.66,19.12,17.66c11.45,10.9,28.28-17.4,46.85-18.97
	c-4.18-1.5-8.15-3.65-12.16-5.65c-5.72,2.82-11.58,5.27-18.46,5.13c-6.57-0.13-12.89-2.41-19.14-5.15
	C92.55,77.01,87.17,79.71,81.73,81.59"/>
<path class="st1" d="M81.59,81.74c6,6.26,11.66,12.86,17.66,19.12c10.9,11.45-17.4,28.28-18.97,46.85
	c-3.65-10.2-11.17-19.06-10.94-30.59C69.58,105.03,77.51,93.53,81.59,81.74"/>
<path class="st2" d="M65.97,81.59c-6.26,6-12.86,11.66-19.12,17.66C35.4,110.15,18.57,81.85,0,80.28
	c10.2-3.65,19.07-11.17,30.59-10.94C42.67,69.58,54.17,77.51,65.97,81.59 M66.11,81.74c-6,6.26-11.66,12.86-17.66,19.12
	c-10.9,11.45,17.4,28.28,18.97,46.85c1.5-4.18,3.65-8.15,5.65-12.16c-2.82-5.72-5.27-11.58-5.13-18.46
	c0.13-6.57,2.41-12.89,5.15-19.14C70.69,92.55,68,87.17,66.11,81.74z"/>
<path class="st3" d="M66.11,65.97c-6-6.26-11.66-12.86-17.66-19.12C37.55,35.4,65.85,18.57,67.42,0
	c3.65,10.2,11.17,19.06,10.94,30.59C78.12,42.68,70.2,54.18,66.11,65.97 M65.97,66.12c-6.26-6-12.86-11.66-19.12-17.66
	C35.4,37.56,18.57,65.86,0,67.43c4.19,1.5,8.15,3.65,12.16,5.65c5.72-2.82,11.58-5.27,18.46-5.13c6.57,0.13,12.89,2.41,19.14,5.15
	C55.16,70.7,60.53,68,65.97,66.12z"/>
</svg>
